/* XPM */
static char *_0b3141ecd254dc6fc3a24dc5fb00785Jg2r0I7IwwIFtqh6[] = {
/* columns rows colors chars-per-pixel */
"64 64 110 2 ",
"   c None",
".  c #083F08",
"X  c #064406",
"o  c #054E05",
"O  c #0C440C",
"+  c #0B4B0B",
"@  c #035403",
"#  c #035B03",
"$  c #0C530C",
"%  c #0A5C0A",
"&  c #164C16",
"*  c #194A19",
"=  c #135413",
"-  c #145C14",
";  c #1C541C",
":  c #1C5D1C",
">  c #046404",
",  c #036C03",
"<  c #0B640B",
"1  c #0B6C0B",
"2  c #047404",
"3  c #057B05",
"4  c #0C740C",
"5  c #0C7C0C",
"6  c #136413",
"7  c #136B13",
"8  c #1B641B",
"9  c #1B6C1B",
"0  c #137413",
"q  c #137B13",
"w  c #1B741B",
"e  c #1B7C1B",
"r  c #254425",
"t  c #234823",
"y  c #215321",
"u  c #235C23",
"i  c #2E522E",
"p  c #2B5D2B",
"a  c #315D31",
"s  c #236423",
"d  c #236B23",
"f  c #296529",
"g  c #2B6C2B",
"h  c #247424",
"j  c #237B23",
"k  c #2A732A",
"l  c #2B7B2B",
"z  c #326C32",
"x  c #3B643B",
"c  c #327632",
"v  c #327C32",
"b  c #3D743D",
"n  c #387B38",
"m  c #048304",
"M  c #048C04",
"N  c #0B840B",
"B  c #0B8C0B",
"V  c #049404",
"C  c #059B05",
"Z  c #0C940C",
"A  c #0B9C0B",
"S  c #148414",
"D  c #138B13",
"F  c #1B831B",
"G  c #1C8B1C",
"H  c #149414",
"J  c #159A15",
"K  c #1B931B",
"L  c #1C9B1C",
"P  c #03A403",
"I  c #04AC04",
"U  c #0BA30B",
"Y  c #0AAC0A",
"T  c #02B102",
"R  c #03BA03",
"E  c #0BB30B",
"W  c #09BC09",
"Q  c #14A414",
"!  c #13AA13",
"~  c #1CA21C",
"^  c #1AAC1A",
"/  c #12B412",
"(  c #1DB21D",
")  c #248424",
"_  c #238B23",
"`  c #2B842B",
"'  c #2B8B2B",
"]  c #239323",
"[  c #249B24",
"{  c #2B942B",
"}  c #2D9C2D",
"|  c #338333",
" . c #338B33",
".. c #3A853A",
"X. c #3B8B3B",
"o. c #329432",
"O. c #329B32",
"+. c #3A943A",
"@. c #23A523",
"#. c #22AD22",
"$. c #2AA42A",
"%. c #31A031",
"&. c #3CA23C",
"*. c #3BB63B",
"=. c #38BE38",
"-. c #03C103",
";. c #06C906",
":. c #09CA09",
">. c #05D405",
",. c #409640",
/* pixels */
"      l v J f m V C       '     ` ; N 6 5 2 m 1 B D     g M V T Y             0 5 S #.  } w   )     $.^ x - % = 3 0         j   ",
"        B B M V M 7     O.A Q l H u 8 @ m m M S S G l     N m R Z Q           9 6 *   l ' 0 s e   &.H _ j C m 6 1 D   9 4 )     ",
"        9 0 7 4 V G       +.G ) 5 g ; 1 * D 9 _ H U d   h B V T C I           d w < S   d 5 1 9       s F Z m : B 5 w 0 F | k   ",
"        6 2 , 3 M w     } [   j F   < 7   `      .B q w 5 B V S V C D K       g 7 0 s   F 4 m d     f   D I ! F C  .  7 4 h 8   ",
"A `   q < 5 , , < 7           d s l q     '     L F p N D m P , m 1 B q H j N 1 B B   6 k 5 C w     S w 0 P U 1 w k     G N 5 c ",
"L ! 9 q v h . @ $ 4 k   ' J j 7 5 N     ) F   G B e 0 N 7 N 4 m , , 0 5 5 8 ; ; 4 S F 0 N D O.Q J w j g 8 m M 2 - 7 0 7 - B B f ",
"g F 1 2 % m @ @ @ N S {       7 N B d l F ) G D N 1 1 2 , M , , > 2 5 N     0 4 u D 4 0 m C H H 5 9 6 g 8 , M 2 4 0 1 N Z m < F ",
"..L > 2 2 P > , , N h         1 q N D S ) h D w S N 3 k m %   8 2 0 ^ )       S 9 6 2 0 3 Z ] K B d 0 N d 4 M 3 C S 1 7 ; 7 4 q ",
"N | V V M V 5 4 3 6         G 2 5 k w 1 h 0 9 7 B B S 9 q 4     m   C         _ N w , 1 3 U F e k g w e j J /   N m g f 7 z 7 2 ",
"J Y I L D T H @.  9       F 5 S z ` H S 1 w 9 7 v U 5 1 2 2 Y C 3 M M c     ~ ] q 4 7 w S H 0 F ` _     7 N X.  H C 4 4 5 B ,.E ",
"  ' E G e h z   e N : - q ] N F   | H B , 4 S 4 N 5 > 1 > C >.:.2 2 , 1 h   ! B 4 1 q e e U Z e ) L ! S ) S     @.I U !   L o.| ",
"    #.@.S j     H p r 1 2 Z Z H F G B B 3 5 0 B V 5 2 # @ m 2 3 V 2 6 , q   [ A 5 1 N F D I V J e S B N c       v K ! U _       ",
"      g l k       7 + + 2 C G G H C V C 5 3 J w 4 2 w : 4 4 V C 1 m M 2 ; 9 B R 3 0 0 D H K J S B B D j         l Z D h     =.+.",
"        _ )       5 < o 3 q w K 0 N B D ' 5 _   U U j d       _   i N < 3 U I W U N 2 5 6 M H L F d S     d       8 2 g         ",
"      c   K }   J % - % 9 9 _ ) Q D w 5 0 3 h h G H q B h ` U     7 - 9 N I B V C V 0 > 7 e  .o.  [ H s   w j     : m < | %.    ",
"  c h S     e G n H V 4 4 0   e D _ D B N S S 3 N 5 7 5 _ H M N S m > 4 m V e g U Z 7 + :   c _   G F d p S w g   8 1 2 h       ",
"  D : 8 G B F D z 5 4 5 7 f z c G K H j j D w < , 5   c   D m 5 N M M M , % 6 Y D H 1 7 w l h j         w Q N $   4 m 3 N ~ l   ",
"q e h       e h   J B S w     S   G _ ^ F C p q % 1 6 k   j l F 1 ; 4 # , 6 H W U U B B 5 D k 9 l   e k 0 ! 5 < 6 2 M 1 B v _ ~ ",
"0 e d     ) H N w M B B G _ S G k l   ' w B j   u # 9     <   | g B m %   = V I I Z m C N 5 3 q l ` 0 e e S w < 3 m 1 @ M B U | ",
"D H k ) M S B 4 w j H G ` j       n q 8 j       8 # 1 - 1 6 9 B H p  .  @ % 9  .Y V l Z N N V 5 H   e q 0 s e ) 0 N 2 , m V S N ",
"9 4 4 g j F S w s   e G c c |   _ 0 2 7       9 `       1 t   5     L A , % 8 2 M 5 g m 4 % 5 D D A ) d 8 s ` w S 4 3 , 3 V R V ",
"7 8 z g     D 0 6 0 0 Z 0 q ` K #. .k 5   h Y 5     M 1 N w # & =   [ Z : e  .  B 2 k d - w 4 q C U f : @ :   F V 4 5 > 2 2 M > ",
": l   j 9   J N , > 2 q )   +.} X.          _   w 7     ; + @ - %   : 3 7   d     q k   5 0 A S V m 1 S 0 8 g S Z N 0 , 2 % , % ",
"  ..j N q G U q 7 3 D S     k D e n     e A 9 m , , D q 3 % + 4 5 M 9   2 6   g     K J A Z V 1 , 3 7 F q m 0 D 5   8 S > < 7 x ",
"          G D w w 0 _ H ] 8 w j K ' ' h F D C w p 3 M m , , 1 K D N B   5 : +   q   ~ _ W C L h > % 4 N N B F e 9       u q #   ",
"          @.[ D 7 0 0 s e N S o.      F _         O , 2 V I B E ~   L U M f = = % q ) l S q 1 4 @ 1 3 > 8 9 K k             s   ",
"    l L ] @.S B > 4 1 1 m D U [             ;.5 8 X # > I _ U J b $.Y C S B f 2 % 1 f   1 M 4 , m 1 3 7       F j     0 G q ; 1 ",
"1 f J [ } ) e N 4 2 % < 2 0 G [         ` O.|   & o , V H ~ F D (   F v   N l     1 y   # m < 1 > > 1 G       ) `     w D m 4 > ",
"3 , u       9 B M B d d - 8 7 S c     G J ..    2 @ 0 0 v F           L     j  .  C 8 = 0 5 N N w d w j                 8 % , 2 ",
"m 6 k         Z G 9   6 ; 8 8 N               B V 8 , 9   {           N       l ' q , 5 o. .e 7   S 8 J C 5   k h g j   h 7 1 > ",
"N             w J B e F g q p F       D v   K J j q N 2 9 D           q H         N 4 q  . .S _   [ H N M N ) e f 9 j   F w B M ",
"7             q B 2     `     _     *.! _   u 2 C B    .k ` l  .    X.h a S     D B l   ) +.  O.    H 1 2 m L 8 0 c ' X.~ G m 5 ",
"!             0 5 D #.  [ h   )     } ( x - % = 2 w         j         l l L f m V C       '     ` ; B 8 5 2 m 1 B D     k M V I ",
"Z Q           9 < t   l ` q s e   &.H _ l C m 6 2 D   9 4 _             D B M V V 7     O.U J j Z u 6 @ m N M N S G l     m m R ",
"C I           d w < S   h 5 < 9       s e Z m : M q w 0 F | h           9 0 7 4 V G       +.) ) 5 g ; 1 * D 9 _ D Y d   h B V T ",
"M A D J       f 6 0 s   e 2 N 9     f   H I U F C  .  9 4 h :           6 2 , 3 m w     } [   ) F   < 9   `     X.B q w 4 D V D ",
"m 1 B q H j N , B Z   6 h 5 C w     S w 0 P Y 4 w d     F N 5 c A `   q < 4 , , 1 6           d u l q     _     L F u S B m P , ",
", , 4 5 5 8 y ; 4 S F 0 N S O.^ H w j f 8 M m 2 : 0 0 7 - B B g L ! 9 q | j . @ $ 4 k   ' J e 7 5 N     ) F   _ B F 7 B 7 B 4 3 ",
"> 2 5 S     q 4 s D 4 0 m C H H 3 8 6 c 8 , m 2 2 0 1 N Z N < S g F , 2 % 3 @ @ @ N S {       7 N B d ` F ) D S 5 1 1 2 , M 2 2 ",
"3 9 ! _       q 9 6 , 0 m H K _ Z d 0 N 9 4 M 5 C S 4 7 ; 6 4 q ..L > 2 2 P > , , N h         0 5 S D S ` h S e S N 3 h 3 %   - ",
"m   C         _ S 0 , 1 5 U S F k g 9 F j J /   N m g p 9 z 7 2 N v V V M V 5 2 3 6         G 2 m k w 1 h 0 9 6 Z B S 9 0 5     ",
"2 M M k     ~ ] q 4 8 q S H 0 F ` _     7 N X.  H C 4 5 5 B ../ J E I L G T H @.  w       F 5 q z ` D S 1 w 0 7 v A 5 1 2 2 Y V ",
"4 2 2 1 h   ! B 2 1 5 e w U C e ) L Y S ) F     @.Y U !   L }  .  ' E G w h z   e N : - 5 [ N F   | H M , 0 S 4 N N > 1 > C >.:.",
"V 2 < , 0   @.A 5 1 S F D T Z H w D B S k       v K U U _           #.@.D j     H p r 1 2 Z Z H F _ B V 5 4 0 Z B 5 , > @ m 3 3 ",
"1 m M 2 y 9 B R 5 4 q S Z K J D D B D j         ` Z D h     =.+.      g l k       7 $ + , C _ G H C V C q 3 K w 4 2 w : 4 4 M C ",
"  i N < 3 U I W U 5 2 5 6 M K [ F 9 S     d       8 4 d                 _ '       4 < o 2 5 e K 0 N D S _ 5 G   U U j f       _ ",
"  7 - 8 N P B V C Z 7 < 9 e  .{   [ H s   w l     : m 6 | O.          c   H }   J % 8 % w 9 _ _ Q D w N 0 3 h j G H q B j ) !   ",
"S M > 4 M Z e g U C 7 + -   z ]   G F d a q q d   8 1 2 h         c e q     e ) n H V 1 1 0   w D _ D B N S S 3 N 3 0 5 _ H m N ",
"N V m M , % 6 Y D H 1 7 j l h j         w Q N $   4 m 3 S ~ j     D - 8 _ B ) D z 5 2 q 7 f g c G K H ) j D w < , 5   c   D m m ",
"1 y 1 > , - H -.U U B m 4 D h 9 l   e k 0 ! 5 < 6 5 M 1 N | _ ~ q e h       e w   J B S e     S   G _ ^ F C p 0 % 6 7 k   j l e ",
"f B m %   = V I Y V N C N 5 5 q j ) q w e D w % 3 m , # m B U | 0 j d     ) Z N w M N B G ) S G g l   ' w B `   u # 9     6   | ",
"J u  .  @ % 9  .I Z l Z B N V 5 L   e q 0 u e ) 0 N , , M V S N D Z k j M S D 4 w j H G ` l       n q 8 j       8 # 1 - 1 6 9 B ",
"    L C , % 8 2 M 4 g m , 6 5 D N Z _ d 8 s ` e e 4 3 2 2 V T V 9 0 4 g j G q w s   e G c l  .  _ 0 , 0       9 `       1 t   q ",
"=   [ Z u e  .  B 3 k d - 0 4 5 C U f u o :   F V 4 5 > 3 2 M > 0 8 z g     D 0 1 0 0 Z w 5 l K #.' k 5   h Y q     M 1 N 9 # $ ",
"%   : 2 0   d     q k   5 q H S V m 1 S 4 8 g S Z m 0 < 2 6 < % : c   j 9   L m , > 3 q )   +.O.X.          _   w 7     ; o @ - ",
"3 B w   , 6   g     K J A Z V 1 2 4 9 F q m q D 5   8 S , > 1 x   ..j N q D U w 1 5 S S     k D F n     w C w m , , B e 3 % + 4 ",
"D N N   N : +   w   ~ G W C [ w < % 2 N N B F e 9       : q #             G D w w w _ H ] 8 e j K ' ' j F D C w u 3 M m , , 4 K ",
"~   L I N f = = < q _ k S q 1 4 @ , 3 > 8 9 K k             f             @.[ K 7 1 0 s e N q o.      F _         O , 2 M I B E ",
"b $.! C S D s 2 % 1 f   < M 4 , 3 4 4 1       F j     w G q : <     l L _ @.q B < 4 1 4 N S U [             :.5 8 X # > I ' U H ",
"(   F v   m l     1 ;   # N < 4 , < 1 F       ) `     w N m 4 > 1 d J [ $.) F N 2 2 @ < 2 0 D [         ` O.|   & o , V Z L S H ",
"      L     j  .  C 6 ; 0 5 N N 0 g w j                 8 # , 3 2 1 u       9 B B B s d - 6 9 S c     G L |     , @ 0 0 v F     ",
"      N       l ' q 1 5 o. .q 7   S 9 H C q   k h g j   d 9 1 > 3 7 k         B K 9   8 ; 8 6 S               B V 8 , 7   {     ",
"      q K         N 4 q  . .S ]   [ H B M N ) e f d j   F w M M m             w K B e F g q f F       D v   G Q ` 4 N 4 9 D     ",
"    X.h a S     D M l   j ,.  O.    D 1 2 m L 8 1 l ' X.@.G m 5 0             q V 2     `     _     *.! _   u 2 C B    .k ` v  ."
};
