/* XPM */
static char *_a2a2360bfbc4b078a95c79915721befUiwCuzISG4EsDQLv[] = {
/* columns rows colors chars-per-pixel */
"64 64 254 2 ",
"   c #1D1D1A",
".  c #250D03",
"X  c #2A0E03",
"o  c #230A04",
"O  c #261105",
"+  c #2B1205",
"@  c #2C140A",
"#  c #2E190B",
"$  c #27130A",
"%  c #321505",
"&  c #3A1B06",
"*  c #32150A",
"=  c #341B0C",
"-  c #3A1D0C",
";  c #381906",
":  c #281B15",
">  c #341D11",
",  c #3A1E11",
"<  c #361913",
"1  c #3D210D",
"2  c #35220D",
"3  c #2D241B",
"4  c #28251A",
"5  c #342214",
"6  c #3C2213",
"7  c #33251B",
"8  c #34281C",
"9  c #3C2A1C",
"0  c #3C2618",
"q  c #32311F",
"w  c #1C2B2C",
"e  c #1A2826",
"r  c #1D3335",
"t  c #1A302D",
"y  c #232A26",
"u  c #2C2C24",
"i  c #222D2C",
"p  c #282928",
"a  c #332C24",
"s  c #3C2C23",
"d  c #3A2925",
"f  c #23312B",
"g  c #2C342D",
"h  c #283427",
"j  c #33342C",
"k  c #34392E",
"l  c #3B3A2D",
"z  c #3A3327",
"x  c #292D32",
"c  c #243334",
"v  c #2B3433",
"b  c #243B3D",
"n  c #2C3B3C",
"m  c #2B3736",
"M  c #333533",
"N  c #343A34",
"B  c #3B3C34",
"V  c #333C3B",
"C  c #3B3D3A",
"Z  c #3B3535",
"A  c #332E34",
"S  c #1F201B",
"D  c #4B1C0D",
"F  c #451E0E",
"G  c #471E13",
"H  c #511E11",
"J  c #551D0D",
"K  c #42230C",
"L  c #4A260C",
"P  c #4C290E",
"I  c #432413",
"U  c #4B2414",
"Y  c #4C2B14",
"T  c #4B251A",
"R  c #4C2B1C",
"E  c #442919",
"W  c #542314",
"Q  c #522D13",
"!  c #532D1B",
"~  c #5A2818",
"^  c #4D331C",
"/  c #54321C",
"(  c #5B351D",
")  c #583418",
"_  c #6A280E",
"`  c #632916",
"'  c #6B2B14",
"]  c #642916",
"[  c #722E15",
"{  c #69361B",
"}  c #733214",
"|  c #763619",
" . c #772F0B",
".. c #4B2D22",
"X. c #442C24",
"o. c #562B23",
"O. c #443324",
"+. c #44342A",
"@. c #4C352A",
"#. c #443A2C",
"$. c #4C3B2C",
"%. c #493823",
"&. c #5B3B2B",
"*. c #553727",
"=. c #473B36",
"-. c #553B33",
";. c #6A2C26",
":. c #663B27",
">. c #753A25",
",. c #693629",
"<. c #34413C",
"1. c #3C433B",
"2. c #3D4539",
"3. c #2F4536",
"4. c #76451E",
"5. c #49422B",
"6. c #57432A",
"7. c #444334",
"8. c #4C4433",
"9. c #44443B",
"0. c #4C4A3B",
"q. c #48473C",
"w. c #53453A",
"e. c #574737",
"r. c #48543C",
"t. c #69452A",
"y. c #794929",
"u. c #6C4A34",
"i. c #654637",
"p. c #764C36",
"a. c #6A523E",
"s. c #79543A",
"d. c #7D512C",
"f. c #2B3D43",
"g. c #243C42",
"h. c #373D41",
"j. c #403E41",
"k. c #2B4244",
"l. c #2C464A",
"z. c #2D4B4C",
"x. c #254442",
"c. c #344344",
"v. c #3A4544",
"b. c #334B45",
"n. c #3B4A45",
"m. c #3A464C",
"M. c #344B4C",
"N. c #3B4C4C",
"B. c #33454C",
"V. c #34514E",
"C. c #3A514D",
"Z. c #3E5247",
"A. c #2E4E52",
"S. c #334D51",
"D. c #3A4A50",
"F. c #2E5154",
"G. c #345353",
"H. c #3C5352",
"J. c #3A5759",
"K. c #2E514D",
"L. c #444C4C",
"P. c #484944",
"I. c #584C43",
"U. c #4C554D",
"Y. c #46534A",
"T. c #585347",
"R. c #434D54",
"E. c #435454",
"W. c #4A5554",
"Q. c #455A55",
"!. c #4C5A54",
"~. c #445B5A",
"^. c #4B5C5A",
"/. c #465659",
"(. c #565A55",
"). c #645649",
"_. c #785A48",
"`. c #6C5E5A",
"'. c #665B55",
"]. c #765D54",
"[. c #714D41",
"{. c #4B615D",
"}. c #54625C",
"|. c #5A6358",
" X c #6C635D",
".X c #64635B",
"XX c #7C6253",
"oX c #73635C",
"OX c #7B655B",
"+X c #7D695C",
"@X c #766556",
"#X c #7D604D",
"$X c #4E6463",
"%X c #496463",
"&X c #5A6A6A",
"*X c #586764",
"=X c #6C6561",
"-X c #646964",
";X c #6C6A65",
":X c #6C6C6C",
">X c #636868",
",X c #716562",
"<X c #746A64",
"1X c #7B6C64",
"2X c #766C69",
"3X c #7B6E69",
"4X c #7C6762",
"5X c #74726B",
"6X c #7D716B",
"7X c #7B7468",
"8X c #7B6F72",
"9X c #6B7576",
"0X c #747272",
"qX c #7D7372",
"wX c #797778",
"eX c #6A6F6E",
"rX c #813310",
"tX c #813E24",
"yX c #844C2A",
"uX c #88542B",
"iX c #93572A",
"pX c #875738",
"aX c #965B34",
"sX c #93582D",
"dX c #845C47",
"fX c #87574B",
"gX c #84634B",
"hX c #866347",
"jX c #8A6D5B",
"kX c #856858",
"lX c #916B55",
"zX c #826B64",
"xX c #826E6B",
"cX c #8A6A63",
"vX c #897365",
"bX c #82746D",
"nX c #8B756C",
"mX c #8C7B6E",
"MX c #857568",
"NX c #937A6A",
"BX c #847572",
"VX c #8C7674",
"CX c #867973",
"ZX c #8B7B73",
"AX c #8D7C7A",
"SX c #867B78",
"DX c #917D74",
"FX c #917E7B",
"GX c #8E8179",
"HX c #948275",
"JX c #95837A",
"KX c #99857C",
"LX c #9B8979",
"PX c #978582",
/* pixels */
").oXkXkXkXkXkXzXzX1X+X+X+XkXzX4X4X+X+X+X+X+X+X+X+XOXOX+X4X4X+X@X+X@XoX,X,X`.].XX].@XoXoX`.`.@X@XoXoXoXoXoX`.`.`.`.`.`.`.`.`.'.T.",
",XBXDXNXNXNXDXDXVXZXDXmXmXmXDXDXVXmXmXDXDXDXVXmXmXnXnXmXmXmXnXvXvXMXnXBXBXBXvXvXvXvXnXbX8XxXMXvXMXbXxXbXbX3X3X6X3X1X3X3X1X3X<X'.",
"3XFXLXLXLXLXPXPXPXPXPXLXHXHXKXPXKXKXKXKXKXKXKXKXKXJXJXJXKXKXJXDXmXmXAXAXAXFXDXDXNXDXZXAXAXAXZXmXZXZXZXZXZXZXCXZXBXbXBXbXbXbX6XoX",
"3XAXLXHXLXLXKXPXPXPXPXLXHXHXJXPXKXKXKXKXKXKXKXJXKXJXJXJXJXJXHXDXmXHXAXAXAXFXDXmXmXmXZXAXAXAXZXmXZXZXZXZXZXnXnXCXBXbXBXbXbXbX6X X",
"<XAXHXHXHXKXPXPXPXPXJXHXHXHXJXJXKXLXLXKXKXKXJXHXJXJXHXHXHXDXDXZXmXZXAXVXVXVXDXmXnXnXBXSXAXAXZXmXZXZXZXZXCXnXbXbXCXbXBXbX6X6X3X X",
"<XSXJXGXHXJXPXPXPXGXZXGXHXJXJXFXJXJXJXLXLXJXHXDXHXDXDXDXDXZXVXVXmXZXZXVXVXnXnXZXmXnXBXSXAXAXVXZXZXZXCXCXnXbXbXbXBXbXbXbX6X6X3X X",
",XBXAXSXAXGXGXAXAXAXZXVXZXDXFXAXJXDXDXDXFXFXZXZXZXZXZXZXZXZXZXCXCXbXnXVXcXzXzXVXnXnXBXCXZXZXBXnXCXnXbXnXbX6X6X6X6X3X7X7X3X6X2X`.",
"oXbXSXSXSXAXSXAXAXZXVXVXZXZXAXGXZXZXZXZXZXZXVXZXZXZXZXZXnXnXnXCXCXbXvXnXcX].OXnXnXBXBXBXBXBXbXbXCXbXbXbXbX6X6X6X3X3X3X3X2X3X<X'.",
" X6XSXBXSXSXSXZXnXnXnXVXVXVXSXAXZXZXZXZXZXZXZXZXbXnXBXCXCXnXbXbX6XnXNXcXkXi.kXMXbXBXBXbXnXbX6X6X6X6XbX6X6X7X7X7X3X2X2X2X<X<X=X'.",
"`.7XBXqXBXSXnXMXjXjXvXnXVXVXSXSXZXZXZXZXZXCXCXCXbXbXbXbXbXbXbXbXbXMXkXfXfX,._.zX6X6X6XxXxXxX6X6X6X6X6X6X3X3X3X3X3X<X2X2X<X<X=X'.",
"'.2XqXqXBXnXvXkXhXgXkXcXnXVXSXSXSXCXCXCXBXBXBXBXbX6X6X3X3X6X6XbXMXjX_.y.y.,.u.OX6X6X3XxXzXzX3X7X3X3X3X3X3X<X2X2X2X<X<X<X,X,X X'.",
"'.<X6X8XBXnXkXhXpXpXdXjXnXVXSXwXBXBXBXbXbXbXbXbX6X6X3X3X3X3X3X3X1XkXp.| tX| t.XXbX6XxXzXzX4X4X<X<X2X2X2X<X<X<X<X<X,X,X<X,X=X X'.",
"'.<X3X8XBXvXgXpXpXuXpXlXnXVXSXqXqXBXBX6X6X6X3X3X3X3X3X3X3X3X3X3X+XgXy. .rX| :.].bX6XxXzXzX4X<X<X<X<X<X<X<X<X<X<X<X=X=X=X X=X X(.",
"'.<X6X8XBXcXhXuXiXuXpXdXcXVXqXqXqX6X6X6X3X3X3X3X2X2X3X3X3X2X1X4XkXdX|  .rX| :.].3X3X1XzXzX+X<X<X,X<X<X<X<X=X=X,X,X X=X=X X X X(.",
").<XqXxXxXkXpXuXiXiXyXdXjXnXqX5XqX6X6X6X3X3X3X2X<X<X2X2X2X<X<X4X_.p.| rXrXrX{ _.4X<X4X+XOXOXoX<XoX<X<X<X X X=X X=X X X X X X`.(.",
").oX6XxXcXkXpXd.iXyXyXpXkXvXbX3XbXbX6X3X3X3X2X2X2X2X2X<X<X1X4X+Xu.{  .rX .rX{ s.kXkXkXgXdXdXXX@XoXoXoXoX X X=X=X=X X X X.X.X`.T.",
").@XzXcXlXfXs.s.s.s.s.s.dXjXjXgXgXjXvXzX1X3X8X:X0X:X:X3X4XOXkXdX>._  .| } } | pXhXpXaXaXaXaXpXs.OXoXoX X X=X=X=X-X;X X X`.@X].i.",
"e.).@X].fX[.p.a.a.a.s.p.s.hXhXpXpXhXhXkXkXzX3X2X:X:X;X2X4X@XXX_.|  .} | } [ | uXaXiXiXaXaXaXiXpX].@X@XoXoXoX X X X=X`. X]._._.t.",
"7.I.T.).[.p.i.a.i.u.p.p.t.d.pXuXuXd.d.dXgXdXXXzX<X2X;X<XoXOXXXu.}  .[ [ | [ [ yXiXuXiXiXiXuXyXd.s._.].XXXX_._.).@X].].]._.s.p.t.",
"k 9.0.w.i.i.e.e.e.u.p.>.{ t.d.d.y.4.y.yXd.p._.kX+X3X<X<XOXOX].:.}  .[ ' } ' ` y.pXyXuXuXyXd.d.y.p.s._._.s.u.i.i.]._.[._.s.t.t.{ ",
"g C 2.9.w.e.e.e.e.t.>.>.{ 4.y.d.4.y.yXy.y.y.s.dX#X+X@XXXXXXX_.{ } | [ _ [ ' ` >.pXy.d.d.d.d.s.s.u.p.s.p.t.:.( ( _.u.u.a.u.:.:.( ",
"i V <.1.9.w.8.8.6.:.>.| ' { t.t.t.d.yXy.| y.pXdX_.gX_.#XgXgXpX{ } } } ' ' ] ~ ,.p.t.t.t.t.t.u.u.u.u.u.t.:.{ ( ( u.u.i.a.i.&.6.*.",
"x h.c.<.C 9.7.8.6.:.;.[ ` { t.6.6.u.p.t.t.p.s.s.dXdX_.dXdXpXpX| [ [ [ ' ] ] ~ { t.t.t.t.&.*.6.6.i.i.t.:.( ) / *.i.i.e.I.e.-.w.$.",
"v c.c.<.C 1.2.7.*.*.;.;.( *.6.8.8.e.i.i.t.u.u.u.dX_.s.s.s.pXyX} ' _ [ ' ] ` ` o.&.*.*.6.$.$.8.-.6.6.&.*.! ! ! ..e.w.=.q.=.Z B a ",
"v v n c.v.1.2.7.$.&.;.;.o.@.8.P.9.q.-.&.&.&.6._.jXjXjXNXjXlXyX} [ ' _ ] ] ~ ~ :.[.).T.).).I.I.T.i.e.*...R R R R ).'.I.=.B M M g ",
"x N v.N.v.M g l +.*.;.;.*.$.C 1.N C -.&.*.^ %.e.MXvXMXmXvXvXp.' ] ] ] ` ` W ~ &.zXbX1X7X7X1X7X1XvX_.*.R T I E ..OX3X=X-X>X*X>X(.",
"P.Y.!.!.L.C N l O...o.o.@.Z C <.1.9.-.*.*.^ 5.T.bXBX0XwX7X7Xu.~ ~ ` ` ` ~ H T &.+X1X;X5X5X<X5X1XXX:.Y ! ! U T *.].1X<X=X;X-X-X(.",
"V <.<.c.C C C B #.@.o.o.@.=.P.L.Y.0.6.&.&.6.e.|.5XwX9X9X9X;Xi.T ~ ~ ~ ~ W D T *.OX5X;X;X;X;X5X4Xi.( U ~ ( U K E ).oX X.X.X|.(.U.",
"n.n.n.v.P.P.9.0.O.^ ! o.$.9.L.Y.2.8.-.*.6.5.7.Y.0XwX9X9X9X.X-.H W ~ W W W W T @.oX5XeX:X:X:X5X X&.( W ~ W U E E ).<X;X-X-X-X|.(.",
"3.b.C.n.C Z B 7.%.^ / / O.7.Y.U.Y.q.@./ %.#.2.r.0XwX9X9X9XT.o.H W W H H W W T X.T.=X:X>X:X-X.Xw.! ~ ~ W W T ..X.).;X;X>X*X*X|.(.",
"t 3.b.n.j.=.7.8.5.6.( ) %.5.P.!.Y.P.$...%.5.r.|.:X9X9X9X5Xe.W J D T D D H D T X.T.;XeXeX9X:X Xw.T T T T T E 9 d (.eXeX&X&X*X*X!.",
"3.b.N.n.P.=.B l %.6.6.6.%.l B 2.1.2.=.$.8.0.U.|.:X:X0X0X7Xe.W ~ G U D D D D I X.T.=X-X*X:X;X'.=.T G G T E X.s Z P.&X&X&X&X&X*XQ.",
"n.Q.}.!.!.U.9.j l s 9 %.#.#.l B 2.2.k B P.|.&XeX9X>X:X0X'.+.T ..T K F D D D F E e.<X;X-X:X;XT.+.E T U G G E 9 d =.(.&X&X&X&X*X^.",
"L.^.}.}.!.U.P.N a a a z z z z j q u N 2.U.!.}.}.eXeX-XU.=.=.=.d 6 - F F D T F E =..X.X.X;X'.I.X...R T T I I 7 7 =.(.*X$X$X{.^.E.",
"!.*X&X}.!.Y.1.g N B B B l l l k k j j k 2.Y.}.*X}.*X|.9.q..X.XI.$.X.T G G G , d =.'.-X-X-X(.P.z 0 6 6 6 6 0 s z Z (.(.(.^./.!.E.",
"E.{.&X&X&X*X!.n.v.P.C M M 9.U.U.q.2.k g k 1.Y.!.Y.(.|.T.0.I..X X).I.-.X.X.X.0 d Z (.*X(.*X(.P.=.#.O.X.9 9 0 d z j U.W.^./././.E.",
"N.Q.$X*X&X&X^.N.V C v i v L.*X-X(.P.k u g C 9.P.P.9.0.I.e.e.e.).).T.T.w.w.8.z j M W.}.!.^.}.U.P.T.e.e.8.8.#.#.B j L.W.W./.E.W.L.",
"C.Q.$X$X$X$XE.c.m v c i n E.$X&X&XY.N g C P.P.P.I.+.X.-.e.i.&.@.0.9.I.w.w.w.7.7.9.!.|.U.U.(.P.I.T.T.T.).T.0.7.9.C W.W.W./.E.E.n.",
"N.Q.$X$X$X*X$X/.f.m c c c.E.$X$X{.Z.<.1.U.(.T.q.+.@.-.*.T I T R @.#.$.%.O.$.$.8.0.I.T.0.0.w.#.w.T.I.T.T.0.l j M v.W.E.E.Q.E.H.M.",
"N.Q.$X^.Q.^.Q.E.n c w c c.Q.$X$X$XC.m m L.(.(.T.#.s X.@.@.*.*.O.O.+.$.O.E %.O.%.$.O.#.$.$.%.9 w.B k l l l j k C v.E.N.C.H.H.H.M.",
"C.Q.^.{.{.{.^.E.N.h.c c n.E.~.%X~.{.E.b.v.W.W.P.j u 4 u q 4 4 q 8 8 9 9 0 0 0 9 s s s +.%.O.O.%.j j g u j B P.U.L.C.H.J.J.J.G.z.",
"n.E.Q.Q.Q.Q.E.N.h.m i w V H.Q.~.%X%X~.H.N.E.E.Y.V h h h h h h h u u a 8 8 3 3 3 3 : : 3 3 3 3 3 u p j C U.(.W.W.Q.~.J.J.J.J.G.K.",
"n.E.^.Q.H.C.N.M.m n i e m M.H.H.G.J.J.~.S.k.b n V m g M g f f g n v g y y h g g v g g v v v g g y y p N P.U.W.E.E.H.G.G.F.F.z.x.",
"C.Q.{.~.H.C.C.N.N.N.c.c c.H.H.G.J.J.J.G.l.b k.M.c.c.<.<.N g x v c.m.c.n m <.<.m c c n c c c c f v v g p p g V v.E.J.J.G.F.F.l.x.",
"b.H.~.J.G.G.H.N.E.E.c.c f.H.H.M.G.G.G.M.M.M.H./.N.L.L.L.h.M A A h.m.R.m.h.n c e n m.R.D.B.c.c.n n.n.v.N i i i c B.D.S.S.S.S.l.x.",
"b l.G.M.z.M.S.M.C.M.c e c M.V.z.x.z.G.V.G.H.M.b.N.N.R.L.h.M x x x n h.n c i w e c m./.R.m.m.c.k./.H.c.n c i w w r f.B.z.S.S.B.k.",
"g.l.z.z.z.A.z.z.M.M.f.c k.S.H.V.H.C.M.M.b.V.V.V.V.V.V.M.M.b t w w i i e e e t f c n./.E.N.C.C.b.M.k.c w w i w w w f.D.D.B.D.m.c.",
"z.S.G.F.A.S.A.l.k.l.k.f.l.M.z.l.M.M.M.V.G.G.G.G.J.G.G.J.J.z.r t e e e f f e e e w c.E.H.C.C.C.b.r t w w w w w w w g.B.l.f.f.f.f.",
"x.l.S.G.G.G.A.l.k.l.k.r b l.z.l.z.z.A.F.F.F.F.F.F.A.G.J.G.l.b t e y i i i f f w w c.E.N.M.H.b.b t w e w w w w w t b l.k.g.k.g.b ",
"n k.M.N.N.N.N.b.b.c.c.b b n n b k.k.l.l.z.z.M.z.B.M.S.H.N.n i e y y y y y y e e e n N.n.n.N.n.n v i e w i i w e e c f.f.b n b r ",
"u j N B C C C B C 2.C C B C B M g g g M N V N N N N B C B j 4 : : 4 4 4 4 4 :   S u N M v M M g u : : : y y :   y x M v x x x y ",
"5 3 8 8 8 8 8 8 5 5 5 8 8 8 8 8 8 3 3 8 a a a 8 3 3 3 7 7 5 5 > > 5 5 5 7 9 9 8 O.+.+.z z z z z s 0 7 7 d d 7 7 7 a d a u 3 4 : ",
"= 5 5 = = = = = 0 5 5 5 0 5 5 5 5 = = 2 5 5 5 5 > = = = - 6 I U Y ! ! ! / / ( / *./ Y ^ ^ ^ Y Y Y Y Y Y E E E E 6 9 0 2 2 5 5 2 ",
"6 6 6 - - - - = = = % = = = = - - = - = , , > = 6 I E R R R ! ! o.( ( / ! ! Q Q L L L P Q Q L L K K K K K 1 1 K 1 1 1 2 2 1 6 6 ",
"= , , = = = = * = = = > , 6 6 6 = = = = = = = * , I E R ....R R ....E I 6 , - = - 1 6 I E U I 1 - - - , - = = = @ @ + + = > 5 5 ",
"+ @ @ + + + + + . + + + @ = @ + @ # @ @ + + + + + = , 6 6 I I , 7 0 7 > # # @ $ @ = # + + + % * * @ + @ * X X . o o o o X @ @ $ ",
"@ @ + O O O O . O O + $ $ + O O O O O + + + + O O O X X O + + + # : # @ @ @ @ # > = # + + + + + + + @ @ * @ X X X . . . @ < < < ",
"0 6 5 > > = = = # # = = = = = = = = = = = = = = * + % % * * % % @ # # # = = > 2 5 6 6 1 1 I I I E I 6 6 6 6 6 I I - - , R ..R I ",
"E I I 6 6 1 - = = - - - - - 1 1 - - - - - 1 U U K K 1 1 1 1 - & - & & & - & & & L P P P Q ! ) ) ) Q P P P L P P P P L Q ( ( Q L ",
"1 1 1 1 - - ; ; ; ; & & - - 1 1 1 - - - - K U U K K K K 1 - & % % ; & & K K L P L P P Q Q ) ) ) Q Y Y Q Y P L L L Q ) ( ) Q L L ",
"- & & & & & & % & & & & - - - - - - - - - - K K Y U U U K 1 - ; * = * = = - = - 1 6 6 I I Y Y Y U U T T T T I K T T ! ! U U F K ",
"% % + + % % % % % % % % = = = = = = = = = = - - U I I 1 6 - = = # # # # @ + + O @ # * # * = 5 - - = = - - - = = - - ; ; - - ; % ",
"+ + . . . + + + + + @ @ @ + + $ O $ @ # # @ * @ @ + + + $ $ $ . o o O + @ = = = + @ + + + * * @ + + O + + + O O + O X X + % + X ",
"# # $ $ $ # # # $ $ @ @ @ $ O O o $ $ $ @ @ $ + # @ @ @ # # : # # @ = = = = * * , > = * + * * + # # # = = # + + % * = * + + % = "
};
